<?xml version="1.0" encoding="UTF-8"?>
<!DOCTYPE svg PUBLIC "-//W3C//DTD SVG 1.1//EN" "http://www.w3.org/Graphics/SVG/1.1/DTD/svg11.dtd">
<svg xmlns="http://www.w3.org/2000/svg" version="1.1" width="1024px" height="1024px" style="shape-rendering:geometricPrecision; text-rendering:geometricPrecision; image-rendering:optimizeQuality; fill-rule:evenodd; clip-rule:evenodd" xmlns:xlink="http://www.w3.org/1999/xlink">
<g><path style="opacity:1" fill="#fefefe" d="M -0.5,-0.5 C 340.833,-0.5 682.167,-0.5 1023.5,-0.5C 1023.5,340.833 1023.5,682.167 1023.5,1023.5C 682.167,1023.5 340.833,1023.5 -0.5,1023.5C -0.5,682.167 -0.5,340.833 -0.5,-0.5 Z"/></g>
<g><path style="opacity:1" fill="#f5f5f5" d="M 35.5,30.5 C 352,31.8316 668.5,31.8316 985,30.5C 989.676,31.1629 993.342,33.4963 996,37.5C 996.191,292.335 996.691,547.169 997.5,802C 997.104,848.85 996.104,895.683 994.5,942.5C 994.945,948.838 995.445,955.171 996,961.5C 997.255,962.211 998.421,963.044 999.5,964C 999.043,964.414 998.709,964.914 998.5,965.5C 1000.88,970.449 1004.38,974.449 1009,977.5C 1009.84,979.838 1010.67,982.172 1011.5,984.5C 1011.17,985.167 1010.83,985.833 1010.5,986.5C 1006.79,988.681 1002.79,990.181 998.5,991C 996.469,993.022 994.135,994.689 991.5,996C 688.849,995.635 386.183,994.969 83.5,994C 76.1602,992.847 68.6602,992.347 61,992.5C 53.1399,992.531 45.3066,992.865 37.5,993.5C 36.062,993.281 34.7287,992.781 33.5,992C 30.9627,989.094 28.796,985.927 27,982.5C 26.3333,667.5 26.3333,352.5 27,37.5C 29.4639,34.519 32.2972,32.1856 35.5,30.5 Z"/></g>
<g><path style="opacity:1" fill="#8e8e8e" d="M 525.5,414.5 C 540.857,413.225 556.191,413.558 571.5,415.5C 556.172,414.969 540.839,414.636 525.5,414.5 Z"/></g>
<g><path style="opacity:1" fill="#7d7d7d" d="M 686.5,416.5 C 670.053,414.718 653.72,415.385 637.5,418.5C 637.918,417.778 638.584,417.278 639.5,417C 655.295,413.991 670.961,413.825 686.5,416.5 Z"/></g>
<g><path style="opacity:1" fill="#4e4e4e" d="M 525.5,414.5 C 519.381,416.325 513.047,417.658 506.5,418.5C 506.611,417.883 506.944,417.383 507.5,417C 513.409,415.451 519.409,414.618 525.5,414.5 Z"/></g>
<g><path style="opacity:1" fill="#050505" d="M 525.5,414.5 C 540.839,414.636 556.172,414.969 571.5,415.5C 576.616,416.806 581.949,417.473 587.5,417.5C 589.167,417.5 590.833,417.5 592.5,417.5C 596.591,418.895 600.924,419.562 605.5,419.5C 606.613,420.946 606.78,422.613 606,424.5C 603.648,426.03 601.481,427.697 599.5,429.5C 594.898,430.342 590.565,431.676 586.5,433.5C 576.074,432.873 565.907,433.54 556,435.5C 548.755,475.969 540.755,516.302 532,556.5C 528.952,568.155 524.452,579.155 518.5,589.5C 517.596,590.209 517.263,591.209 517.5,592.5C 519.5,592.5 521.5,592.5 523.5,592.5C 524.5,592.5 525.5,592.5 526.5,592.5C 531.25,594.031 536.25,594.698 541.5,594.5C 548.611,596.023 555.944,596.69 563.5,596.5C 564.598,597.601 564.765,598.934 564,600.5C 560.174,604.652 555.674,607.652 550.5,609.5C 547.848,609.41 545.515,610.076 543.5,611.5C 542.167,611.5 540.833,611.5 539.5,611.5C 523.163,611.333 506.83,611.5 490.5,612C 484.616,612.315 478.949,613.149 473.5,614.5C 469.143,614.586 464.81,614.92 460.5,615.5C 458.546,606.238 461.88,599.404 470.5,595C 473.117,594.178 475.784,593.678 478.5,593.5C 485.327,592.669 491.994,591.669 498.5,590.5C 500.451,588.52 501.951,586.187 503,583.5C 504.601,577.363 506.601,571.363 509,565.5C 520.077,522.94 530.577,480.274 540.5,437.5C 541.434,436.432 541.768,435.099 541.5,433.5C 533.981,433.175 526.648,433.508 519.5,434.5C 516.236,435.324 512.902,435.658 509.5,435.5C 506.813,435.336 504.146,435.503 501.5,436C 500.584,436.278 499.918,436.778 499.5,437.5C 496.15,437.665 492.817,437.498 489.5,437C 488.493,431.255 490.493,426.588 495.5,423C 498.729,420.384 502.396,418.884 506.5,418.5C 513.047,417.658 519.381,416.325 525.5,414.5 Z"/></g>
<g><path style="opacity:1" fill="#050505" d="M 686.5,416.5 C 689.287,417.477 692.287,417.81 695.5,417.5C 707.346,418.71 719.346,418.71 731.5,417.5C 733.273,418.314 733.773,419.648 733,421.5C 728.189,427.158 722.689,431.824 716.5,435.5C 713.603,436.129 710.936,437.129 708.5,438.5C 708.167,438.5 707.833,438.5 707.5,438.5C 701.5,438.167 695.5,437.833 689.5,437.5C 688.391,437.443 687.391,437.11 686.5,436.5C 681.566,434.617 676.566,434.284 671.5,435.5C 669.883,437.121 668.716,439.121 668,441.5C 661.673,460.483 655.507,479.483 649.5,498.5C 661.079,499.928 672.745,500.928 684.5,501.5C 685.93,502.537 687.597,503.204 689.5,503.5C 690.403,507.033 689.069,509.699 685.5,511.5C 679.496,513.273 673.496,514.606 667.5,515.5C 659.826,515.334 652.159,515.5 644.5,516C 642.665,520.004 641.332,524.17 640.5,528.5C 638.565,532.895 637.231,537.562 636.5,542.5C 630.786,559.02 626.453,576.02 623.5,593.5C 622.111,598.269 621.444,603.269 621.5,608.5C 621.483,610.565 621.15,612.565 620.5,614.5C 617.235,615.46 613.902,615.46 610.5,614.5C 604.279,612.438 600.779,608.105 600,601.5C 599.208,594.753 599.374,588.086 600.5,581.5C 601.924,579.485 602.59,577.152 602.5,574.5C 607.361,556.114 613.361,538.114 620.5,520.5C 621.404,519.791 621.737,518.791 621.5,517.5C 613.802,517.839 606.135,518.505 598.5,519.5C 597.007,518.688 596.34,517.355 596.5,515.5C 598.782,506.546 604.448,501.546 613.5,500.5C 617.84,499.944 622.173,499.277 626.5,498.5C 628.03,498.36 629.03,497.693 629.5,496.5C 636.52,476.108 644.52,456.108 653.5,436.5C 654.404,435.791 654.737,434.791 654.5,433.5C 647.159,433.334 639.826,433.5 632.5,434C 628.699,434.739 625.366,436.239 622.5,438.5C 617.969,441.206 615.135,445.206 614,450.5C 613.347,460.559 613.847,470.559 615.5,480.5C 612.098,480.658 608.764,480.324 605.5,479.5C 600.69,476.919 597.523,472.919 596,467.5C 593.054,454.337 596.554,443.17 606.5,434C 611.558,429.943 616.892,426.276 622.5,423C 623.793,422.51 625.127,422.343 626.5,422.5C 629.397,421.871 632.064,420.871 634.5,419.5C 635.391,418.89 636.391,418.557 637.5,418.5C 653.72,415.385 670.053,414.718 686.5,416.5 Z"/></g>
<g><path style="opacity:1" fill="#707070" d="M 571.5,415.5 C 577.084,415.255 582.417,415.922 587.5,417.5C 581.949,417.473 576.616,416.806 571.5,415.5 Z"/></g>
<g><path style="opacity:1" fill="#8a8a8a" d="M 592.5,417.5 C 597.122,417.156 601.455,417.823 605.5,419.5C 600.924,419.562 596.591,418.895 592.5,417.5 Z"/></g>
<g><path style="opacity:1" fill="#8a8a8a" d="M 731.5,417.5 C 719.346,418.71 707.346,418.71 695.5,417.5C 707.692,417.326 719.692,417.326 731.5,417.5 Z"/></g>
<g><path style="opacity:1" fill="#575757" d="M 634.5,419.5 C 632.064,420.871 629.397,421.871 626.5,422.5C 628.617,420.345 631.284,419.345 634.5,419.5 Z"/></g>
<g><path style="opacity:1" fill="#848484" d="M 599.5,429.5 C 599.389,430.117 599.056,430.617 598.5,431C 594.553,432.154 590.553,432.987 586.5,433.5C 590.565,431.676 594.898,430.342 599.5,429.5 Z"/></g>
<g><path style="opacity:1" fill="#6f6f6f" d="M 519.5,434.5 C 526.648,433.508 533.981,433.175 541.5,433.5C 541.768,435.099 541.434,436.432 540.5,437.5C 540.5,436.5 540.5,435.5 540.5,434.5C 533.5,434.5 526.5,434.5 519.5,434.5 Z"/></g>
<g><path style="opacity:1" fill="#464646" d="M 671.5,435.5 C 676.566,434.284 681.566,434.617 686.5,436.5C 681.482,436.387 676.482,436.053 671.5,435.5 Z"/></g>
<g><path style="opacity:1" fill="#7e7e7e" d="M 509.5,435.5 C 506.373,436.581 503.04,437.247 499.5,437.5C 499.918,436.778 500.584,436.278 501.5,436C 504.146,435.503 506.813,435.336 509.5,435.5 Z"/></g>
<g><path style="opacity:1" fill="#969696" d="M 653.5,436.5 C 643.244,433.712 632.911,434.379 622.5,438.5C 625.366,436.239 628.699,434.739 632.5,434C 639.826,433.5 647.159,433.334 654.5,433.5C 654.737,434.791 654.404,435.791 653.5,436.5 Z"/></g>
<g><path style="opacity:1" fill="#9c9c9c" d="M 716.5,435.5 C 714.383,437.655 711.716,438.655 708.5,438.5C 710.936,437.129 713.603,436.129 716.5,435.5 Z"/></g>
<g><path style="opacity:1" fill="#8c8c8c" d="M 689.5,437.5 C 695.5,437.833 701.5,438.167 707.5,438.5C 701.443,439.738 695.443,439.405 689.5,437.5 Z"/></g>
<g><path style="opacity:1" fill="#060606" d="M 411.5,565.5 C 412.924,563.485 413.59,561.152 413.5,558.5C 422.039,525.679 431.206,493.012 441,460.5C 447.744,459.521 454.578,459.188 461.5,459.5C 454.631,481.44 447.964,503.44 441.5,525.5C 440.076,527.515 439.41,529.848 439.5,532.5C 433.059,550.161 427.393,568.161 422.5,586.5C 414.252,587.469 405.918,587.802 397.5,587.5C 384.321,545.116 370.988,502.783 357.5,460.5C 364.724,459.188 371.891,459.188 379,460.5C 388.872,496.325 399.205,531.991 410,567.5C 410.278,566.584 410.778,565.918 411.5,565.5 Z"/></g>
<g><path style="opacity:1" fill="#535353" d="M 605.5,479.5 C 608.764,480.324 612.098,480.658 615.5,480.5C 612.696,481.638 609.696,481.805 606.5,481C 605.944,480.617 605.611,480.117 605.5,479.5 Z"/></g>
<g><path style="opacity:1" fill="#5c5c5c" d="M 629.5,496.5 C 629.03,497.693 628.03,498.36 626.5,498.5C 622.173,499.277 617.84,499.944 613.5,500.5C 613.611,499.883 613.944,499.383 614.5,499C 619.541,498.128 624.541,497.294 629.5,496.5 Z"/></g>
<g><path style="opacity:1" fill="#808080" d="M 684.5,501.5 C 686.698,501.12 688.365,501.787 689.5,503.5C 687.597,503.204 685.93,502.537 684.5,501.5 Z"/></g>
<g><path style="opacity:1" fill="#a3a3a3" d="M 685.5,511.5 C 685.119,512.931 684.119,513.764 682.5,514C 677.566,515.16 672.566,515.66 667.5,515.5C 673.496,514.606 679.496,513.273 685.5,511.5 Z"/></g>
<g><path style="opacity:1" fill="#989898" d="M 620.5,520.5 C 619.848,519.275 618.681,518.608 617,518.5C 612.528,519.361 608.028,520.028 603.5,520.5C 601.631,520.493 599.964,520.16 598.5,519.5C 606.135,518.505 613.802,517.839 621.5,517.5C 621.737,518.791 621.404,519.791 620.5,520.5 Z"/></g>
<g><path style="opacity:1" fill="#a0a0a0" d="M 441.5,525.5 C 441.59,528.152 440.924,530.485 439.5,532.5C 439.41,529.848 440.076,527.515 441.5,525.5 Z"/></g>
<g><path style="opacity:1" fill="#b5b5b5" d="M 640.5,528.5 C 640.289,533.6 638.955,538.266 636.5,542.5C 637.231,537.562 638.565,532.895 640.5,528.5 Z"/></g>
<g><path style="opacity:1" fill="#4b4b4b" d="M 413.5,558.5 C 413.59,561.152 412.924,563.485 411.5,565.5C 411.41,562.848 412.076,560.515 413.5,558.5 Z"/></g>
<g><path style="opacity:1" fill="#4d4d4d" d="M 602.5,574.5 C 602.59,577.152 601.924,579.485 600.5,581.5C 600.41,578.848 601.076,576.515 602.5,574.5 Z"/></g>
<g><path style="opacity:1" fill="#434343" d="M 422.5,586.5 C 418.724,587.825 414.557,588.491 410,588.5C 405.653,588.499 401.486,588.166 397.5,587.5C 405.918,587.802 414.252,587.469 422.5,586.5 Z"/></g>
<g><path style="opacity:1" fill="#727272" d="M 498.5,590.5 C 491.994,591.669 485.327,592.669 478.5,593.5C 480.811,591.932 483.478,591.098 486.5,591C 490.486,590.501 494.486,590.334 498.5,590.5 Z"/></g>
<g><path style="opacity:1" fill="#858585" d="M 518.5,589.5 C 519.802,591.028 521.469,592.028 523.5,592.5C 521.5,592.5 519.5,592.5 517.5,592.5C 517.263,591.209 517.596,590.209 518.5,589.5 Z"/></g>
<g><path style="opacity:1" fill="#838383" d="M 526.5,592.5 C 531.75,592.302 536.75,592.969 541.5,594.5C 536.25,594.698 531.25,594.031 526.5,592.5 Z"/></g>
<g><path style="opacity:1" fill="#5d5d5d" d="M 541.5,594.5 C 549.028,594.626 556.361,595.293 563.5,596.5C 555.944,596.69 548.611,596.023 541.5,594.5 Z"/></g>
<g><path style="opacity:1" fill="#a0a0a0" d="M 623.5,593.5 C 623.556,598.731 622.889,603.731 621.5,608.5C 621.444,603.269 622.111,598.269 623.5,593.5 Z"/></g>
<g><path style="opacity:1" fill="#8c8c8c" d="M 550.5,609.5 C 548.485,610.924 546.152,611.59 543.5,611.5C 545.515,610.076 547.848,609.41 550.5,609.5 Z"/></g>
<g><path style="opacity:1" fill="#6e6e6e" d="M 539.5,611.5 C 517.642,612.214 495.642,613.214 473.5,614.5C 478.949,613.149 484.616,612.315 490.5,612C 506.83,611.5 523.163,611.333 539.5,611.5 Z"/></g>
<g><path style="opacity:1" fill="#b0b0b0" d="M 473.5,614.5 C 469.246,616.409 464.912,616.742 460.5,615.5C 464.81,614.92 469.143,614.586 473.5,614.5 Z"/></g>
<g><path style="opacity:1" fill="#989898" d="M 610.5,614.5 C 613.902,615.46 617.235,615.46 620.5,614.5C 619.848,615.725 618.681,616.392 617,616.5C 614.516,616.503 612.349,615.837 610.5,614.5 Z"/></g>
</svg>
